<?xml version="1.0" encoding="UTF-8"?>
<svg width="700pt" height="700pt" version="1.1" viewBox="0 0 700 700" xmlns="http://www.w3.org/2000/svg">
 <g>
  <path d="m335.91 105c-14.332 0-32.113 7.3516-42.246 17.5l-80.254 80.254c-2.0664 2.0664-3.9219 4.6367-5.7227 7.2461h-64.277c-19.301 0-35 15.699-35 35v49c0 19.301 15.699 35 35 35h61.934c1.2773 2.4492 2.5547 4.8984 3.9883 6.9141l69.613 97.512c8.9414 12.492 26.566 21.574 41.914 21.574h15.051c19.301 0 35-15.699 35-35v-280c0-19.301-15.699-35-35-35zm-192.5 189v-49h52.5v49zm192.45 126h-14.996c-3.9727 0-11.113-3.6758-13.422-6.9141l-69.617-97.508c-3.5-4.8828-6.9141-15.574-6.9141-21.578l0.003906-49c0-4.9883 3.7266-13.984 7.2461-17.5l80.254-80.254c3.5156-3.5195 12.527-7.2461 17.5-7.2461z"/>
  <path d="m511.33 280 75.129-75.129c6.8438-6.8438 6.8438-17.902 0-24.746s-17.902-6.8438-24.746 0l-75.129 75.129-75.129-75.129c-6.8438-6.8438-17.902-6.8438-24.746 0s-6.8438 17.902 0 24.746l75.133 75.129-75.129 75.129c-6.8438 6.8438-6.8438 17.902 0 24.746 3.4141 3.4102 7.8945 5.125 12.371 5.125 4.4805 0 8.9609-1.7148 12.371-5.1289l75.129-75.129 75.129 75.129c3.4141 3.4141 7.8945 5.1289 12.371 5.1289 4.4805 0 8.9609-1.7148 12.371-5.1289 6.8438-6.8438 6.8438-17.902 0-24.746z"/>
 </g>
</svg>
