<?xml version="1.0" encoding="UTF-8"?>
<svg width="700pt" height="700pt" version="1.1" viewBox="0 0 700 700" xmlns="http://www.w3.org/2000/svg">
 <g>
  <path d="m358.75 105c-14.332 0-32.113 7.3516-42.246 17.5l-80.254 80.254c-2.082 2.0664-3.9375 4.6367-5.7383 7.2461h-64.262c-19.301 0-35 15.699-35 35v49c0 19.301 15.699 35 35 35h61.934c1.2773 2.4492 2.5547 4.8984 3.9883 6.9141l69.613 97.512c8.9258 12.492 26.566 21.574 41.914 21.574h15.051c19.301 0 35-15.699 35-35v-280c0-19.301-15.699-35-35-35zm-192.5 189v-49h52.5v49zm192.45 126h-15c-3.9727 0-11.113-3.6758-13.422-6.9141l-69.613-97.512c-3.5-4.8828-6.9141-15.574-6.9141-21.578v-48.996c0-4.9883 3.7266-13.984 7.2461-17.5l80.254-80.254c3.5156-3.5195 12.512-7.2461 17.5-7.2461z"/>
  <path d="m495.02 102.11c-6.8438-6.8438-17.902-6.8438-24.746 0s-6.8438 17.902 0 24.746c40.934 40.949 63.473 95.32 63.473 153.14 0 57.801-22.539 112.19-63.473 153.12-6.8438 6.8438-6.8438 17.902 0 24.746 3.4141 3.4141 7.8906 5.1289 12.371 5.1289 4.4805 0 8.9609-1.7148 12.371-5.1289 47.551-47.547 73.73-110.72 73.73-177.87 0-67.164-26.18-130.34-73.727-177.89z"/>
  <path d="m440.18 150.45c-6.8438-6.8438-17.902-6.8438-24.746 0s-6.8438 17.922 0 24.746c28.016 28.016 43.453 65.238 43.453 104.81 0 39.566-15.434 76.789-43.453 104.81-6.8438 6.8438-6.8438 17.902 0 24.746 3.4141 3.4141 7.8906 5.1289 12.371 5.1289s8.9609-1.7148 12.371-5.1289c34.633-34.633 53.707-80.641 53.707-129.55 0.007813-48.922-19.07-94.93-53.703-129.56z"/>
 </g>
</svg>
